<?xml version="1.0" encoding="utf-8"?>
<!-- Generator: Adobe Illustrator 21.0.0, SVG Export Plug-In . SVG Version: 6.00 Build 0)  -->
<svg version="1.1" id="Layer_1" xmlns="http://www.w3.org/2000/svg" xmlns:xlink="http://www.w3.org/1999/xlink" x="0px" y="0px"
	 viewBox="0 0 51.4 51.4" style="enable-background:new 0 0 51.4 51.4;" xml:space="preserve">
<style type="text/css">
	.st0{fill:#231F20;}
	.st1{fill:#EF3C39;}
	.st2{fill:#FFFFFF;}
</style>
<g>
	<path class="st0" d="M-276.1-49.8c-0.6-0.5-1.1-0.7-1.8-0.7h-5.3v11.4c0,0.2,0.1,0.4,0.1,0.5c0.1,0.2,0.3,0.3,0.6,0.3
		c0.6,0,0.8-0.3,0.8-0.8v-3.8h3.5c0.9,0,1.5-0.1,2.1-0.8c0.6-0.6,0.6-1.2,0.7-2v-2.1c0-0.7,0-1.2-0.4-1.7
		C-275.8-49.6-275.9-49.7-276.1-49.8z M-276.9-45.6c0,0.9-0.2,1.1-1.1,1.1h-3.5V-49h3.5c0.5,0,0.8,0.1,1,0.3
		c0.1,0.2,0.1,0.4,0.1,0.8V-45.6z"/>
	<path class="st0" d="M-253.2-50.4h-2.7c-1.2,0-1.9,0.4-2.5,1.5l-1.5,2.9c-0.3,0.6-0.4,1.1-0.4,1.7c0,0.6,0.2,1.1,0.5,1.7l1.4,2.9
		c0.1,0.2,0.2,0.4,0.3,0.5c0.5,0.7,1.1,1,2.1,1h2.8c0.4,0,0.8-0.2,0.8-0.8c0-0.2,0-0.4-0.1-0.5c-0.1-0.2-0.4-0.3-0.7-0.3h-2.6
		c-0.6,0-0.8,0-1-0.3c-0.1-0.1-0.1-0.2-0.2-0.4l-1.4-2.7c-0.2-0.4-0.3-0.6-0.3-1.1s0.1-0.8,0.3-1.2l1.4-2.7c0.3-0.6,0.4-0.7,1.1-0.7
		h2.7c0.4,0,0.8-0.2,0.8-0.8c0-0.2,0-0.4-0.1-0.5C-252.6-50.4-252.9-50.5-253.2-50.4z"/>
	<path class="st0" d="M-248.7-48.4c0,0.2,0.1,0.4,0.1,0.5c0.1,0.2,0.3,0.3,0.6,0.3c0.6,0,0.8-0.3,0.8-0.8V-49h1.5v9.9
		c0,0.2,0.1,0.4,0.1,0.5c0.1,0.2,0.3,0.3,0.6,0.3c0.6,0,0.8-0.3,0.8-0.8V-49h1.5v0.6c0,0.2,0.1,0.4,0.1,0.5c0.1,0.2,0.3,0.3,0.6,0.3
		c0.6,0,0.8-0.3,0.8-0.8v-2.1l-7.9-0.1L-248.7-48.4z"/>
	<path class="st0" d="M-231.4-49.2c0-0.1-0.1-0.2-0.2-0.4c-0.4-0.5-1-0.9-1.7-1c-0.9,0-1.6,0.5-1.9,1.3l-1.6,3.1
		c-0.3,0.6-0.4,1.1-0.4,1.8c0,0.8,0.2,1.2,0.5,1.9l1.5,2.9c0.1,0.1,0.1,0.3,0.2,0.4c0.4,0.5,0.9,0.9,1.7,0.9c0.9,0,1.6-0.5,1.9-1.3
		l1.5-2.9c0.3-0.7,0.5-1.1,0.5-1.9c0-0.7-0.1-1.1-0.4-1.7L-231.4-49.2z M-231.2-43.2l-1.5,3c-0.1,0.2-0.2,0.5-0.5,0.5
		c-0.2,0-0.3-0.1-0.4-0.2c0-0.1-0.1-0.1-0.1-0.3l-1.5-3c-0.2-0.3-0.3-0.6-0.3-1c0-0.5,0.1-0.8,0.4-1.3l1.4-2.8
		c0.1-0.2,0.2-0.5,0.5-0.5c0.2,0,0.3,0.1,0.4,0.2c0.1,0.1,0.1,0.2,0.2,0.3l1.4,2.8c0.2,0.5,0.3,0.7,0.4,1.3
		C-231-43.9-231.1-43.6-231.2-43.2z"/>
	<path class="st0" d="M-218.3-39.8l-3.6-5.1h1.5c1.3,0,2.5-0.8,2.5-2.2v-1.1c0-0.5-0.2-0.9-0.4-1.2c-0.5-0.7-1.3-1-2.2-1.1h-5.4
		v11.4c0,0.2,0.1,0.4,0.1,0.5c0.1,0.2,0.3,0.3,0.6,0.3c0.6,0,0.8-0.3,0.8-0.8v-5.8h0.4l4.4,6.2l0,0c0.2,0.2,0.4,0.4,0.7,0.4
		c0.5,0,0.8-0.3,0.8-0.7c0-0.2-0.2-0.5-0.3-0.7C-218.2-39.7-218.2-39.7-218.3-39.8z M-224.1-46.4v-2.4h3.5c0.3,0,0.8,0,1,0.3
		c0.1,0.1,0.1,0.2,0.1,0.4v1.1c0,0.6-0.7,0.7-1.2,0.7L-224.1-46.4z"/>
</g>
<g>
	<path class="st1" d="M-266-47c-0.8-0.1-1.5-0.2-2.2-0.6c-0.1-0.1-0.1,0-0.2,0.1c-0.3,1.1-0.5,2.3-0.7,3.4
		c-0.8,4.3-1.5,8.6-2.2,12.9c0,0.1,0,0.1,0,0.2c0.2,0.2,0.2,0.2,0.3,0c0-0.1,0-0.1,0-0.2c1.5-4.2,2.9-8.3,4.2-12.6
		c0.3-1,0.6-2.1,0.9-3.1C-265.9-47-265.9-47-266-47z"/>
	<path class="st1" d="M-263.5-54.7c-0.1-0.7-0.4-1.2-0.8-1.8c-0.3-0.5-0.7-1-1.1-1.4l-0.1-0.1c-0.4-0.4-0.9-0.9-1.3-1.3
		c-0.1-0.1-0.2-0.1-0.2,0l0,0c0,0.2,0.1,0.3,0.2,0.4c0.6,0.9,0.7,1.8,0.2,2.8c-0.1,0.2-0.2,0.5-0.4,0.7c-0.5,0.8-0.3,1.8,0.4,2.5
		c0.7,0.6,1.7,0.6,2.5,0C-263.6-53.4-263.4-54-263.5-54.7z"/>
	<path class="st1" d="M-266.5-52.5c-0.1-0.1-0.1,0-0.1,0.1c-0.2,0.5-0.4,1.1-0.6,1.7c-0.3,0.9-0.6,1.7-1,2.6c0,0.1,0,0.2,0.1,0.2
		c0.7,0.3,1.5,0.5,2.2,0.6c0.1,0,0.1,0,0.1-0.1c0.2-1.5,0.4-3,0.6-4.5c0,0,0-0.1,0-0.2C-265.6-52.2-266.1-52.3-266.5-52.5z"/>
</g>
<rect x="-185.2" y="-84.1" class="st0" width="113.7" height="169.2"/>
<g>
	<path class="st2" d="M-153.1-47.8c-0.6-0.5-1.1-0.7-1.8-0.7h-5.3v11.4c0,0.2,0.1,0.4,0.1,0.5c0.1,0.2,0.3,0.3,0.6,0.3
		c0.6,0,0.8-0.3,0.8-0.8v-3.8h3.5c0.9,0,1.5-0.1,2.1-0.8c0.6-0.6,0.6-1.2,0.7-2v-2.1c0-0.7,0-1.2-0.4-1.7
		C-152.8-47.6-152.9-47.7-153.1-47.8z M-153.9-43.6c0,0.9-0.2,1.1-1.1,1.1h-3.5V-47h3.5c0.5,0,0.8,0.1,1,0.3
		c0.1,0.2,0.1,0.4,0.1,0.8V-43.6z"/>
	<path class="st2" d="M-130.2-48.4h-2.7c-1.2,0-1.9,0.4-2.5,1.5l-1.5,2.9c-0.3,0.6-0.4,1.1-0.4,1.7c0,0.6,0.2,1.1,0.5,1.7l1.4,2.9
		c0.1,0.2,0.2,0.4,0.3,0.5c0.5,0.7,1.1,1,2.1,1h2.8c0.4,0,0.8-0.2,0.8-0.8c0-0.2,0-0.4-0.1-0.5c-0.1-0.2-0.4-0.3-0.7-0.3h-2.6
		c-0.6,0-0.8,0-1-0.3c-0.1-0.1-0.1-0.2-0.2-0.4l-1.4-2.7c-0.2-0.4-0.3-0.6-0.3-1.1s0.1-0.8,0.3-1.2l1.4-2.7c0.3-0.6,0.4-0.7,1.1-0.7
		h2.7c0.4,0,0.8-0.2,0.8-0.8c0-0.2,0-0.4-0.1-0.5C-129.6-48.4-129.9-48.5-130.2-48.4z"/>
	<path class="st2" d="M-125.7-46.4c0,0.2,0.1,0.4,0.1,0.5c0.1,0.2,0.3,0.3,0.6,0.3c0.6,0,0.8-0.3,0.8-0.8V-47h1.5v9.9
		c0,0.2,0.1,0.4,0.1,0.5c0.1,0.2,0.3,0.3,0.6,0.3c0.6,0,0.8-0.3,0.8-0.8V-47h1.5v0.6c0,0.2,0.1,0.4,0.1,0.5c0.1,0.2,0.3,0.3,0.6,0.3
		c0.6,0,0.8-0.3,0.8-0.8v-2.1l-7.9-0.1L-125.7-46.4z"/>
	<path class="st2" d="M-108.4-47.2c0-0.1-0.1-0.2-0.2-0.4c-0.4-0.5-1-0.9-1.7-1c-0.9,0-1.6,0.5-1.9,1.3l-1.6,3.1
		c-0.3,0.6-0.4,1.1-0.4,1.8c0,0.8,0.2,1.2,0.5,1.9l1.5,2.9c0.1,0.1,0.1,0.3,0.2,0.4c0.4,0.5,0.9,0.9,1.7,0.9c0.9,0,1.6-0.5,1.9-1.3
		l1.5-2.9c0.3-0.7,0.5-1.1,0.5-1.9c0-0.7-0.1-1.1-0.4-1.7L-108.4-47.2z M-108.2-41.2l-1.5,3c-0.1,0.2-0.2,0.5-0.5,0.5
		c-0.2,0-0.3-0.1-0.4-0.2c0-0.1-0.1-0.1-0.1-0.3l-1.5-3c-0.2-0.3-0.3-0.6-0.3-1c0-0.5,0.1-0.8,0.4-1.3l1.4-2.8
		c0.1-0.2,0.2-0.5,0.5-0.5c0.2,0,0.3,0.1,0.4,0.2c0.1,0.1,0.1,0.2,0.2,0.3l1.4,2.8c0.2,0.5,0.3,0.7,0.4,1.3
		C-108-41.9-108.1-41.6-108.2-41.2z"/>
	<path class="st2" d="M-95.3-37.8l-3.6-5.1h1.5c1.3,0,2.5-0.8,2.5-2.2v-1.1c0-0.5-0.2-0.9-0.4-1.2c-0.5-0.7-1.3-1-2.2-1.1h-5.4v11.4
		c0,0.2,0.1,0.4,0.1,0.5c0.1,0.2,0.3,0.3,0.6,0.3c0.6,0,0.8-0.3,0.8-0.8v-5.8h0.4l4.4,6.2l0,0c0.2,0.2,0.4,0.4,0.7,0.4
		c0.5,0,0.8-0.3,0.8-0.7c0-0.2-0.2-0.5-0.3-0.7C-95.2-37.7-95.2-37.7-95.3-37.8z M-101.1-44.4v-2.4h3.5c0.3,0,0.8,0,1,0.3
		c0.1,0.1,0.1,0.2,0.1,0.4v1.1c0,0.6-0.7,0.7-1.2,0.7L-101.1-44.4z"/>
</g>
<g>
	<path class="st1" d="M-143-45c-0.8-0.1-1.5-0.2-2.2-0.6c-0.1-0.1-0.1,0-0.2,0.1c-0.3,1.1-0.5,2.3-0.7,3.4
		c-0.8,4.3-1.5,8.6-2.2,12.9c0,0.1,0,0.1,0,0.2c0.2,0.2,0.2,0.2,0.3,0c0-0.1,0-0.1,0-0.2c1.5-4.2,2.9-8.3,4.2-12.6
		c0.3-1,0.6-2.1,0.9-3.1C-142.9-45-142.9-45-143-45z"/>
	<path class="st1" d="M-140.5-52.7c-0.1-0.7-0.4-1.2-0.8-1.8c-0.3-0.5-0.7-1-1.1-1.4l-0.1-0.1c-0.4-0.4-0.9-0.9-1.3-1.3
		c-0.1-0.1-0.2-0.1-0.2,0l0,0c0,0.2,0.1,0.3,0.2,0.4c0.6,0.9,0.7,1.8,0.2,2.8c-0.1,0.2-0.2,0.5-0.4,0.7c-0.5,0.8-0.3,1.8,0.4,2.5
		c0.7,0.6,1.7,0.6,2.5,0C-140.6-51.4-140.4-52-140.5-52.7z"/>
	<path class="st1" d="M-143.5-50.5c-0.1-0.1-0.1,0-0.1,0.1c-0.2,0.5-0.4,1.1-0.6,1.7c-0.3,0.9-0.6,1.7-1,2.6c0,0.1,0,0.2,0.1,0.2
		c0.7,0.3,1.5,0.5,2.2,0.6c0.1,0,0.1,0,0.1-0.1c0.2-1.5,0.4-3,0.6-4.5c0,0,0-0.1,0-0.2C-142.6-50.2-143.1-50.3-143.5-50.5z"/>
</g>
<g>
	<circle class="st1" cx="-243.8" cy="39.1" r="25.3"/>
	<g>
		<path class="st2" d="M-243.6,30.1c-0.9-0.9-1.8-1.1-3-1.1h-8.8v18.9c0,0.4,0.1,0.7,0.2,0.9c0.2,0.3,0.5,0.4,1.1,0.4
			c1,0,1.3-0.5,1.3-1.3v-6.3h5.8c1.4,0,2.5-0.1,3.5-1.3c1-1,1.1-2,1.1-3.3v-3.6c0-1.1,0-2-0.6-2.8
			C-243.2,30.5-243.3,30.3-243.6,30.1z M-245,37.1c0,1.5-0.3,1.9-1.9,1.9h-5.9v-7.4h5.9c0.9,0,1.4,0.2,1.6,0.5
			c0.2,0.3,0.2,0.7,0.2,1.4L-245,37.1z"/>
		<g>
			<path class="st2" d="M-235.7,36.5c-1.1-0.1-2.1-0.3-3.1-0.8c-0.2-0.1-0.2,0-0.2,0.1c-0.4,1.6-0.7,3.1-1,4.7
				c-1.1,5.9-2.1,11.9-3,17.9c0,0.1,0,0.2,0,0.3c0.2,0.2,0.2,0.2,0.5,0c0-0.1,0-0.2,0-0.2c2-5.8,4-11.5,5.8-17.3
				c0.4-1.4,0.9-2.9,1.2-4.3C-235.5,36.6-235.5,36.6-235.7,36.5z"/>
			<path class="st2" d="M-232.2,25.9c-0.2-0.9-0.6-1.7-1.1-2.4c-0.5-0.7-1-1.3-1.6-2c0-0.1-0.1-0.1-0.1-0.2
				c-0.6-0.6-1.2-1.2-1.8-1.8c-0.1-0.1-0.2-0.1-0.3,0c0,0,0,0-0.1,0.1c0.1,0.2,0.2,0.4,0.3,0.6c0.8,1.2,0.9,2.5,0.3,3.8
				c-0.2,0.3-0.3,0.6-0.5,0.9c-0.7,1.1-0.5,2.6,0.6,3.5c0.9,0.8,2.4,0.9,3.4,0.1C-232.3,27.8-232,26.9-232.2,25.9z"/>
			<path class="st2" d="M-236.4,28.9c-0.2-0.1-0.1,0-0.2,0.1c-0.3,0.8-0.6,1.5-0.8,2.3c-0.4,1.2-0.9,2.4-1.3,3.6
				c-0.1,0.2-0.1,0.2,0.1,0.3c1,0.5,2,0.7,3.1,0.8c0.1,0,0.2,0,0.2-0.1c0.2-2.1,0.6-4.2,0.9-6.3c0-0.1,0-0.1,0-0.2
				C-235.2,29.4-235.8,29.3-236.4,28.9z"/>
		</g>
	</g>
</g>
<g>
	<path class="st1" d="M-128.9,31.6h-5.9V39h5.9c1.6,0,1.9-0.4,1.9-1.9v-3.6c0-0.7,0-1.1-0.2-1.4C-127.5,31.7-128,31.6-128.9,31.6z"
		/>
	<path class="st1" d="M-125.8,13.9c-13.9,0-25.3,11.3-25.3,25.3s11.3,25.3,25.3,25.3s25.3-11.3,25.3-25.3S-111.8,13.9-125.8,13.9z
		 M-129,41.6h-5.8v6.3c0,0.8-0.4,1.3-1.3,1.3c-0.5,0-0.9-0.1-1.1-0.4c-0.1-0.2-0.2-0.5-0.2-0.9V29h8.8c1.2,0,2.1,0.2,3,1.1
		c0.2,0.2,0.4,0.4,0.6,0.6c0.6,0.8,0.6,1.6,0.6,2.8v3.6c0,1.3-0.1,2.3-1.1,3.3C-126.5,41.5-127.6,41.6-129,41.6z M-117.5,36.8
		c-0.4,1.4-0.8,2.9-1.2,4.3c-1.8,5.8-3.8,11.6-5.8,17.3c0,0.1-0.1,0.1,0,0.2c-0.3,0.3-0.3,0.3-0.5,0c0.1-0.1,0-0.2,0-0.3
		c0.9-6,1.9-11.9,3-17.9c0.3-1.6,0.6-3.2,1-4.7c0-0.2,0.1-0.2,0.2-0.1c1,0.5,2,0.7,3.1,0.8C-117.5,36.6-117.5,36.6-117.5,36.8z
		 M-116.5,29.5c-0.3,2.1-0.7,4.2-0.9,6.3c0,0.1-0.1,0.1-0.2,0.1c-1.1-0.1-2.1-0.3-3.1-0.8c-0.2-0.1-0.2-0.1-0.1-0.3
		c0.5-1.2,0.9-2.4,1.3-3.6c0.3-0.8,0.5-1.5,0.8-2.3c0-0.1,0-0.2,0.2-0.1c0.6,0.4,1.2,0.5,1.9,0.4C-116.5,29.4-116.5,29.5-116.5,29.5
		z M-115.1,28.4c-1,0.8-2.5,0.8-3.4-0.1c-1-0.9-1.3-2.4-0.6-3.5c0.2-0.3,0.3-0.6,0.5-0.9c0.6-1.3,0.5-2.6-0.3-3.8
		c-0.1-0.2-0.3-0.4-0.3-0.6c0,0,0,0,0.1-0.1c0.1-0.2,0.2-0.1,0.3,0c0.6,0.6,1.2,1.2,1.8,1.8c0,0.1,0.1,0.1,0.1,0.2
		c0.6,0.6,1.1,1.3,1.6,2c0.5,0.8,1,1.5,1.1,2.4C-114,26.9-114.3,27.8-115.1,28.4z"/>
	<path class="st2" d="M-124.4,33.5c0-1.1,0-2-0.6-2.8c-0.2-0.2-0.4-0.4-0.6-0.6c-0.9-0.9-1.8-1.1-3-1.1h-8.8v18.9
		c0,0.4,0.1,0.7,0.2,0.9c0.2,0.3,0.5,0.4,1.1,0.4c1,0,1.3-0.5,1.3-1.3v-6.3h5.8c1.4,0,2.5-0.1,3.5-1.3c1-1,1.1-2,1.1-3.3V33.5z
		 M-127,37.1c0,1.5-0.3,1.9-1.9,1.9h-5.9v-7.4h5.9c0.9,0,1.4,0.2,1.6,0.5c0.2,0.3,0.2,0.7,0.2,1.4L-127,37.1z"/>
	<path class="st2" d="M-117.7,36.5c-1.1-0.1-2.1-0.3-3.1-0.8c-0.2-0.1-0.2,0-0.2,0.1c-0.4,1.6-0.7,3.1-1,4.7
		c-1.1,5.9-2.1,11.9-3,17.9c0,0.1,0,0.2,0,0.3c0.2,0.2,0.2,0.2,0.5,0c0-0.1,0-0.2,0-0.2c2-5.8,4-11.5,5.8-17.3
		c0.4-1.4,0.9-2.9,1.2-4.3C-117.5,36.6-117.5,36.6-117.7,36.5z"/>
	<path class="st2" d="M-115.3,23.4c-0.5-0.7-1-1.3-1.6-2c0-0.1-0.1-0.1-0.1-0.2c-0.6-0.6-1.2-1.2-1.8-1.8c-0.1-0.1-0.2-0.1-0.3,0
		c0,0,0,0-0.1,0.1c0.1,0.2,0.2,0.4,0.3,0.6c0.8,1.2,0.9,2.5,0.3,3.8c-0.2,0.3-0.3,0.6-0.5,0.9c-0.7,1.1-0.5,2.6,0.6,3.5
		c0.9,0.8,2.4,0.9,3.4,0.1c0.8-0.7,1.1-1.5,0.9-2.5C-114.4,25-114.8,24.2-115.3,23.4z"/>
	<path class="st2" d="M-118.4,28.9c-0.2-0.1-0.1,0-0.2,0.1c-0.3,0.8-0.6,1.5-0.8,2.3c-0.4,1.2-0.9,2.4-1.3,3.6
		c-0.1,0.2-0.1,0.2,0.1,0.3c1,0.5,2,0.7,3.1,0.8c0.1,0,0.2,0,0.2-0.1c0.2-2.1,0.6-4.2,0.9-6.3c0-0.1,0-0.1,0-0.2
		C-117.2,29.4-117.8,29.3-118.4,28.9z"/>
</g>
<g>
	<circle class="st2" cx="25.7" cy="25.7" r="25.3"/>
	<g>
		<path class="st1" d="M25.9,16.7c-0.9-0.9-1.8-1.1-3-1.1h-8.8v18.9c0,0.4,0.1,0.7,0.2,0.9c0.2,0.3,0.5,0.4,1.1,0.4
			c1,0,1.3-0.5,1.3-1.3v-6.3h5.8c1.4,0,2.5-0.1,3.5-1.3c1-1,1.1-2,1.1-3.3V20c0-1.1,0-2-0.6-2.8C26.3,17.1,26.2,16.9,25.9,16.7z
			 M24.5,23.7c0,1.5-0.3,1.9-1.9,1.9h-5.9v-7.4h5.9c0.9,0,1.4,0.2,1.6,0.5s0.2,0.7,0.2,1.4L24.5,23.7z"/>
		<g>
			<path class="st1" d="M33.8,23.1c-1.1-0.1-2.1-0.3-3.1-0.8c-0.2-0.1-0.2,0-0.2,0.1c-0.4,1.6-0.7,3.1-1,4.7
				C28.4,33,27.4,39,26.5,45c0,0.1,0,0.2,0,0.3c0.2,0.2,0.2,0.2,0.5,0c0-0.1,0-0.2,0-0.2c2-5.8,4-11.5,5.8-17.3
				c0.4-1.4,0.9-2.9,1.2-4.3C34,23.2,34,23.2,33.8,23.1z"/>
			<path class="st1" d="M37.3,12.5c-0.2-0.9-0.6-1.7-1.1-2.4s-1-1.3-1.6-2c0-0.1-0.1-0.1-0.1-0.2c-0.6-0.6-1.2-1.2-1.8-1.8
				c-0.1-0.1-0.2-0.1-0.3,0c0,0,0,0-0.1,0.1c0.1,0.2,0.2,0.4,0.3,0.6c0.8,1.2,0.9,2.5,0.3,3.8c-0.2,0.3-0.3,0.6-0.5,0.9
				c-0.7,1.1-0.5,2.6,0.6,3.5c0.9,0.8,2.4,0.9,3.4,0.1C37.2,14.4,37.5,13.5,37.3,12.5z"/>
			<path class="st1" d="M33.1,15.5c-0.2-0.1-0.1,0-0.2,0.1c-0.3,0.8-0.6,1.5-0.8,2.3c-0.4,1.2-0.9,2.4-1.3,3.6
				c-0.1,0.2-0.1,0.2,0.1,0.3c1,0.5,2,0.7,3.1,0.8c0.1,0,0.2,0,0.2-0.1c0.2-2.1,0.6-4.2,0.9-6.3c0-0.1,0-0.1,0-0.2
				C34.3,16,33.7,15.9,33.1,15.5z"/>
		</g>
	</g>
</g>
</svg>
